<svg width="36" height="36" viewBox="0 0 36 36" fill="none" xmlns="http://www.w3.org/2000/svg">
<g clip-path="url(#clip0)">
<path d="M1.05469 36H20.1797C20.7622 36 21.2344 35.5279 21.2344 34.9453V33.8203C21.2344 32.6552 20.2901 31.7109 19.125 31.7109V30.45C19.125 28.7803 17.7665 27.4219 16.0969 27.4219H5.13748C3.46783 27.4219 2.10938 28.7803 2.10938 30.45V31.7109C0.944275 31.7109 0 32.6552 0 33.8203V34.9453C0 35.5276 0.472412 36 1.05469 36Z" fill="#7A0A4F"/>
<path d="M13.1999 23.2271C13.9008 24.1573 15.2236 24.3433 16.1538 23.6421C17.0844 22.9411 17.27 21.6184 16.5691 20.6878L10.2218 12.2649C9.52056 11.3343 8.19808 11.1487 7.26782 11.8496C6.33727 12.5508 6.15133 13.8733 6.85253 14.8038L13.1999 23.2271Z" fill="#7A0A4F"/>
<path d="M28.3612 11.8021C29.0624 12.7324 30.3849 12.9183 31.3155 12.2171C32.2457 11.5162 32.4317 10.1937 31.7305 9.26315L25.3831 0.840204C24.6822 -0.0903383 23.3594 -0.276282 22.4292 0.424921C21.4989 1.12612 21.313 2.4486 22.0142 3.37914L28.3612 11.8021Z" fill="#7A0A4F"/>
<path d="M23.7349 17.9292C25.2938 16.7545 26.4641 15.2958 27.1961 13.7599L19.8105 3.95898C18.1324 4.23941 16.4078 4.96204 14.8486 6.13702C13.2896 7.31174 12.1193 8.77045 11.3873 10.3061L18.7729 20.1075C20.451 19.8271 22.1756 19.1042 23.7349 17.9292Z" fill="#7A0A4F"/>
<path d="M26.5828 18.2041C26.0917 18.7045 25.5746 19.1844 25.0044 19.6142C24.4339 20.0438 23.8299 20.4088 23.2139 20.743L24.5891 22.5681L27.9583 20.0295L26.5828 18.2041Z" fill="#7A0A4F"/>
<path d="M29.2278 21.7139L25.8585 24.2525L32.2059 32.6758C32.9071 33.6063 34.2296 33.792 35.1598 33.0911C36.0904 32.3898 36.2761 31.0674 35.5751 30.1368L29.2278 21.7139Z" fill="#7A0A4F"/>
</g>
<defs>
<clipPath id="clip0">
<rect width="36" height="36" fill="white"/>
</clipPath>
</defs>
</svg>
