<svg width="24" height="24" viewBox="0 0 24 24" fill="none" xmlns="http://www.w3.org/2000/svg">
<path d="M22.2026 4.13867H1.79742C0.804703 4.13867 0 4.94337 0 5.93609V18.0654C0 19.0581 0.804703 19.8628 1.79742 19.8628H22.2026C23.1952 19.8628 24 19.0581 24 18.0654V5.93609C24 4.94337 23.1953 4.13867 22.2026 4.13867Z" fill="#41479B"/>
<path d="M23.9751 5.63802C23.8335 4.78682 23.094 4.1377 22.2026 4.1377H21.7349L14.069 9.16021V4.13774H9.93103V9.16026L2.26509 4.13774H1.79742C0.906 4.13774 0.166547 4.78682 0.0248906 5.63807L6.57698 9.93088H0V14.0688H6.57698L0.0248906 18.3615C0.166547 19.2127 0.906 19.8619 1.79742 19.8619H2.26509L9.93103 14.8393V19.8619H14.069V14.8393L21.7349 19.8619H22.2026C23.094 19.8619 23.8335 19.2128 23.9751 18.3615L17.423 14.0687H24V9.93079H17.423L23.9751 5.63802Z" fill="#F5F5F5"/>
<path d="M13.2414 4.13867H10.7586V10.7593H0V13.2421H10.7586V19.8628H13.2414V13.2421H24V10.7593H13.2414V4.13867Z" fill="#FF4B55"/>
<path d="M1.16217 19.7466L9.90825 14.0693H8.38819L0.432373 19.2336C0.627045 19.4609 0.877217 19.6389 1.16217 19.7466Z" fill="#FF4B55"/>
<path d="M16.2369 14.0693H14.7168L23.1879 19.568C23.4249 19.4123 23.6227 19.2021 23.7638 18.9551L16.2369 14.0693Z" fill="#FF4B55"/>
<path d="M0.189697 5.13221L7.58329 9.93162H9.10335L0.725291 4.49316C0.500338 4.6606 0.31626 4.87951 0.189697 5.13221Z" fill="#FF4B55"/>
<path d="M15.5889 9.93191L23.5593 4.75809C23.3625 4.53163 23.1103 4.35463 22.8234 4.24902L14.0688 9.93191H15.5889Z" fill="#FF4B55"/>
</svg>
